<mxfile host="app.diagrams.net" agent="Mozilla/5.0 (Windows NT 10.0; Win64; x64) AppleWebKit/537.36 (KHTML, like Gecko) Chrome/129.0.0.0 Safari/537.36" version="24.8.0">
  <diagram name="Page-1" id="7e0a89b8-554c-2b80-1dc8-d5c74ca68de4">
    <mxGraphModel dx="231" dy="120" grid="1" gridSize="10" guides="1" tooltips="1" connect="1" arrows="1" fold="1" page="1" pageScale="1" pageWidth="1100" pageHeight="850" background="none" math="0" shadow="0">
      <root>
        <mxCell id="0" />
        <mxCell id="1" parent="0" />
        <mxCell id="-OVCTLAQbizjKhevLptn-36" value="" style="rounded=0;whiteSpace=wrap;html=1;" parent="1" vertex="1">
          <mxGeometry x="520" y="360" width="240" height="160" as="geometry" />
        </mxCell>
        <mxCell id="-OVCTLAQbizjKhevLptn-41" style="edgeStyle=orthogonalEdgeStyle;rounded=0;orthogonalLoop=1;jettySize=auto;html=1;exitX=1;exitY=0.8;exitDx=0;exitDy=0;entryX=0;entryY=0.8;entryDx=0;entryDy=0;" parent="1" source="-OVCTLAQbizjKhevLptn-2" target="-OVCTLAQbizjKhevLptn-9" edge="1">
          <mxGeometry relative="1" as="geometry" />
        </mxCell>
        <mxCell id="-OVCTLAQbizjKhevLptn-2" value="" style="pointerEvents=1;verticalLabelPosition=bottom;shadow=0;dashed=0;align=center;html=1;verticalAlign=top;shape=mxgraph.electrical.electro-mechanical.circuitBreaker2;elSwitchState=off;direction=south;" parent="1" vertex="1">
          <mxGeometry x="120" y="80" width="20" height="75" as="geometry" />
        </mxCell>
        <mxCell id="-OVCTLAQbizjKhevLptn-42" style="edgeStyle=orthogonalEdgeStyle;rounded=0;orthogonalLoop=1;jettySize=auto;html=1;exitX=1;exitY=0.8;exitDx=0;exitDy=0;entryX=0;entryY=0.8;entryDx=0;entryDy=0;" parent="1" source="-OVCTLAQbizjKhevLptn-4" target="-OVCTLAQbizjKhevLptn-10" edge="1">
          <mxGeometry relative="1" as="geometry" />
        </mxCell>
        <mxCell id="-OVCTLAQbizjKhevLptn-4" value="" style="pointerEvents=1;verticalLabelPosition=bottom;shadow=0;dashed=0;align=center;html=1;verticalAlign=top;shape=mxgraph.electrical.electro-mechanical.circuitBreaker2;elSwitchState=off;direction=south;" parent="1" vertex="1">
          <mxGeometry x="160" y="80" width="20" height="75" as="geometry" />
        </mxCell>
        <mxCell id="-OVCTLAQbizjKhevLptn-43" style="edgeStyle=orthogonalEdgeStyle;rounded=0;orthogonalLoop=1;jettySize=auto;html=1;exitX=1;exitY=0.8;exitDx=0;exitDy=0;entryX=0;entryY=0.8;entryDx=0;entryDy=0;" parent="1" source="-OVCTLAQbizjKhevLptn-5" target="-OVCTLAQbizjKhevLptn-11" edge="1">
          <mxGeometry relative="1" as="geometry" />
        </mxCell>
        <mxCell id="-OVCTLAQbizjKhevLptn-5" value="" style="pointerEvents=1;verticalLabelPosition=bottom;shadow=0;dashed=0;align=center;html=1;verticalAlign=top;shape=mxgraph.electrical.electro-mechanical.circuitBreaker2;elSwitchState=off;direction=south;" parent="1" vertex="1">
          <mxGeometry x="200" y="80" width="20" height="75" as="geometry" />
        </mxCell>
        <mxCell id="-OVCTLAQbizjKhevLptn-9" value="" style="pointerEvents=1;verticalLabelPosition=bottom;shadow=0;dashed=0;align=center;html=1;verticalAlign=top;shape=mxgraph.electrical.electro-mechanical.circuitBreaker2;elSwitchState=off;direction=south;" parent="1" vertex="1">
          <mxGeometry x="120" y="200" width="20" height="75" as="geometry" />
        </mxCell>
        <mxCell id="-OVCTLAQbizjKhevLptn-10" value="" style="pointerEvents=1;verticalLabelPosition=bottom;shadow=0;dashed=0;align=center;html=1;verticalAlign=top;shape=mxgraph.electrical.electro-mechanical.circuitBreaker2;elSwitchState=off;direction=south;" parent="1" vertex="1">
          <mxGeometry x="160" y="200" width="20" height="75" as="geometry" />
        </mxCell>
        <mxCell id="-OVCTLAQbizjKhevLptn-11" value="" style="pointerEvents=1;verticalLabelPosition=bottom;shadow=0;dashed=0;align=center;html=1;verticalAlign=top;shape=mxgraph.electrical.electro-mechanical.circuitBreaker2;elSwitchState=off;direction=south;" parent="1" vertex="1">
          <mxGeometry x="200" y="200" width="20" height="75" as="geometry" />
        </mxCell>
        <mxCell id="-OVCTLAQbizjKhevLptn-18" value="Main Switch" style="text;html=1;align=center;verticalAlign=middle;resizable=0;points=[];autosize=1;strokeColor=none;fillColor=none;" parent="1" vertex="1">
          <mxGeometry x="230" y="90" width="90" height="30" as="geometry" />
        </mxCell>
        <mxCell id="-OVCTLAQbizjKhevLptn-19" value="C/B 1 32A" style="text;html=1;align=center;verticalAlign=middle;resizable=0;points=[];autosize=1;strokeColor=none;fillColor=none;" parent="1" vertex="1">
          <mxGeometry x="230" y="222.5" width="80" height="30" as="geometry" />
        </mxCell>
        <mxCell id="-OVCTLAQbizjKhevLptn-23" value="L1" style="text;html=1;align=center;verticalAlign=middle;resizable=0;points=[];autosize=1;strokeColor=none;fillColor=none;" parent="1" vertex="1">
          <mxGeometry x="100" y="40" width="40" height="30" as="geometry" />
        </mxCell>
        <mxCell id="-OVCTLAQbizjKhevLptn-24" value="L2" style="text;html=1;align=center;verticalAlign=middle;resizable=0;points=[];autosize=1;strokeColor=none;fillColor=none;" parent="1" vertex="1">
          <mxGeometry x="140" y="40" width="40" height="30" as="geometry" />
        </mxCell>
        <mxCell id="-OVCTLAQbizjKhevLptn-25" value="L3" style="text;html=1;align=center;verticalAlign=middle;resizable=0;points=[];autosize=1;strokeColor=none;fillColor=none;" parent="1" vertex="1">
          <mxGeometry x="180" y="40" width="40" height="30" as="geometry" />
        </mxCell>
        <mxCell id="-OVCTLAQbizjKhevLptn-39" style="edgeStyle=orthogonalEdgeStyle;rounded=0;orthogonalLoop=1;jettySize=auto;html=1;exitX=1;exitY=0.8;exitDx=0;exitDy=0;entryX=0;entryY=0.25;entryDx=0;entryDy=0;" parent="1" source="-OVCTLAQbizjKhevLptn-26" target="-OVCTLAQbizjKhevLptn-36" edge="1">
          <mxGeometry relative="1" as="geometry">
            <Array as="points">
              <mxPoint x="480" y="326" />
              <mxPoint x="480" y="400" />
              <mxPoint x="520" y="400" />
            </Array>
          </mxGeometry>
        </mxCell>
        <mxCell id="-OVCTLAQbizjKhevLptn-26" value="" style="pointerEvents=1;verticalLabelPosition=bottom;shadow=0;dashed=0;align=center;html=1;verticalAlign=top;shape=mxgraph.electrical.electro-mechanical.circuitBreaker2;elSwitchState=off;direction=east;" parent="1" vertex="1">
          <mxGeometry x="302.5" y="309.5" width="75" height="20" as="geometry" />
        </mxCell>
        <mxCell id="-OVCTLAQbizjKhevLptn-27" value="" style="pointerEvents=1;verticalLabelPosition=bottom;shadow=0;dashed=0;align=center;html=1;verticalAlign=top;shape=mxgraph.electrical.electro-mechanical.circuitBreaker2;elSwitchState=off;direction=east;" parent="1" vertex="1">
          <mxGeometry x="302.5" y="390" width="75" height="20" as="geometry" />
        </mxCell>
        <mxCell id="-OVCTLAQbizjKhevLptn-38" style="edgeStyle=orthogonalEdgeStyle;rounded=0;orthogonalLoop=1;jettySize=auto;html=1;exitX=1;exitY=0.8;exitDx=0;exitDy=0;entryX=0;entryY=0.5;entryDx=0;entryDy=0;" parent="1" source="-OVCTLAQbizjKhevLptn-28" target="-OVCTLAQbizjKhevLptn-36" edge="1">
          <mxGeometry relative="1" as="geometry">
            <Array as="points">
              <mxPoint x="440" y="366" />
              <mxPoint x="440" y="440" />
            </Array>
          </mxGeometry>
        </mxCell>
        <mxCell id="-OVCTLAQbizjKhevLptn-28" value="" style="pointerEvents=1;verticalLabelPosition=bottom;shadow=0;dashed=0;align=center;html=1;verticalAlign=top;shape=mxgraph.electrical.electro-mechanical.circuitBreaker2;elSwitchState=off;direction=east;" parent="1" vertex="1">
          <mxGeometry x="302.5" y="350" width="75" height="20" as="geometry" />
        </mxCell>
        <mxCell id="-OVCTLAQbizjKhevLptn-29" value="L2" style="text;html=1;align=center;verticalAlign=middle;resizable=0;points=[];autosize=1;strokeColor=none;fillColor=none;" parent="1" vertex="1">
          <mxGeometry x="270" y="340" width="40" height="30" as="geometry" />
        </mxCell>
        <mxCell id="-OVCTLAQbizjKhevLptn-30" value="L3" style="text;html=1;align=center;verticalAlign=middle;resizable=0;points=[];autosize=1;strokeColor=none;fillColor=none;" parent="1" vertex="1">
          <mxGeometry x="270" y="380" width="40" height="30" as="geometry" />
        </mxCell>
        <mxCell id="-OVCTLAQbizjKhevLptn-31" value="L1" style="text;html=1;align=center;verticalAlign=middle;resizable=0;points=[];autosize=1;strokeColor=none;fillColor=none;" parent="1" vertex="1">
          <mxGeometry x="270" y="299.5" width="40" height="30" as="geometry" />
        </mxCell>
        <mxCell id="-OVCTLAQbizjKhevLptn-32" value="C/B 2 10A" style="text;html=1;align=center;verticalAlign=middle;resizable=0;points=[];autosize=1;strokeColor=none;fillColor=none;" parent="1" vertex="1">
          <mxGeometry x="290" y="410" width="80" height="30" as="geometry" />
        </mxCell>
        <mxCell id="-OVCTLAQbizjKhevLptn-40" style="edgeStyle=orthogonalEdgeStyle;rounded=0;orthogonalLoop=1;jettySize=auto;html=1;exitX=1;exitY=0.8;exitDx=0;exitDy=0;entryX=-0.005;entryY=0.819;entryDx=0;entryDy=0;entryPerimeter=0;" parent="1" source="-OVCTLAQbizjKhevLptn-27" target="-OVCTLAQbizjKhevLptn-36" edge="1">
          <mxGeometry relative="1" as="geometry">
            <Array as="points">
              <mxPoint x="400" y="406" />
              <mxPoint x="400" y="491" />
            </Array>
          </mxGeometry>
        </mxCell>
        <mxCell id="Ml2V3eAciqf3Qmk2anu4-1" value="" style="pointerEvents=1;verticalLabelPosition=bottom;shadow=0;dashed=0;align=center;html=1;verticalAlign=top;shape=mxgraph.electrical.plc_ladder.contact;direction=south;" vertex="1" parent="1">
          <mxGeometry x="600" y="252.5" width="25" height="50" as="geometry" />
        </mxCell>
        <mxCell id="Ml2V3eAciqf3Qmk2anu4-2" value="" style="pointerEvents=1;verticalLabelPosition=bottom;shadow=0;dashed=0;align=center;html=1;verticalAlign=top;shape=mxgraph.electrical.plc_ladder.contact;direction=south;" vertex="1" parent="1">
          <mxGeometry x="640" y="252.5" width="25" height="50" as="geometry" />
        </mxCell>
        <mxCell id="Ml2V3eAciqf3Qmk2anu4-3" value="" style="pointerEvents=1;verticalLabelPosition=bottom;shadow=0;dashed=0;align=center;html=1;verticalAlign=top;shape=mxgraph.electrical.plc_ladder.contact;direction=south;" vertex="1" parent="1">
          <mxGeometry x="680" y="252.5" width="25" height="50" as="geometry" />
        </mxCell>
        <mxCell id="Ml2V3eAciqf3Qmk2anu4-4" style="edgeStyle=orthogonalEdgeStyle;rounded=0;orthogonalLoop=1;jettySize=auto;html=1;exitX=1;exitY=0.5;exitDx=0;exitDy=0;exitPerimeter=0;entryX=0.721;entryY=-0.025;entryDx=0;entryDy=0;entryPerimeter=0;" edge="1" parent="1" source="Ml2V3eAciqf3Qmk2anu4-3" target="-OVCTLAQbizjKhevLptn-36">
          <mxGeometry relative="1" as="geometry" />
        </mxCell>
        <mxCell id="Ml2V3eAciqf3Qmk2anu4-5" style="edgeStyle=orthogonalEdgeStyle;rounded=0;orthogonalLoop=1;jettySize=auto;html=1;exitX=1;exitY=0.5;exitDx=0;exitDy=0;exitPerimeter=0;entryX=0.554;entryY=-0.019;entryDx=0;entryDy=0;entryPerimeter=0;" edge="1" parent="1" source="Ml2V3eAciqf3Qmk2anu4-2" target="-OVCTLAQbizjKhevLptn-36">
          <mxGeometry relative="1" as="geometry" />
        </mxCell>
        <mxCell id="Ml2V3eAciqf3Qmk2anu4-6" style="edgeStyle=orthogonalEdgeStyle;rounded=0;orthogonalLoop=1;jettySize=auto;html=1;exitX=1;exitY=0.5;exitDx=0;exitDy=0;exitPerimeter=0;entryX=0.388;entryY=-0.012;entryDx=0;entryDy=0;entryPerimeter=0;" edge="1" parent="1" source="Ml2V3eAciqf3Qmk2anu4-1" target="-OVCTLAQbizjKhevLptn-36">
          <mxGeometry relative="1" as="geometry" />
        </mxCell>
        <mxCell id="Ml2V3eAciqf3Qmk2anu4-7" value="R1" style="text;html=1;align=center;verticalAlign=middle;resizable=0;points=[];autosize=1;strokeColor=none;fillColor=none;" vertex="1" parent="1">
          <mxGeometry x="500" y="190" width="40" height="30" as="geometry" />
        </mxCell>
        <mxCell id="Ml2V3eAciqf3Qmk2anu4-8" value="R2" style="text;html=1;align=center;verticalAlign=middle;resizable=0;points=[];autosize=1;strokeColor=none;fillColor=none;" vertex="1" parent="1">
          <mxGeometry x="570" y="180" width="40" height="30" as="geometry" />
        </mxCell>
        <mxCell id="Ml2V3eAciqf3Qmk2anu4-9" value="R3" style="text;html=1;align=center;verticalAlign=middle;resizable=0;points=[];autosize=1;strokeColor=none;fillColor=none;" vertex="1" parent="1">
          <mxGeometry x="660" y="170" width="40" height="30" as="geometry" />
        </mxCell>
        <mxCell id="Ml2V3eAciqf3Qmk2anu4-10" value="2" style="text;html=1;align=center;verticalAlign=middle;resizable=0;points=[];autosize=1;strokeColor=none;fillColor=none;" vertex="1" parent="1">
          <mxGeometry x="595" y="370" width="30" height="30" as="geometry" />
        </mxCell>
        <mxCell id="Ml2V3eAciqf3Qmk2anu4-11" value="3" style="text;html=1;align=center;verticalAlign=middle;resizable=0;points=[];autosize=1;strokeColor=none;fillColor=none;" vertex="1" parent="1">
          <mxGeometry x="637.5" y="370" width="30" height="30" as="geometry" />
        </mxCell>
        <mxCell id="Ml2V3eAciqf3Qmk2anu4-12" value="4" style="text;html=1;align=center;verticalAlign=middle;resizable=0;points=[];autosize=1;strokeColor=none;fillColor=none;" vertex="1" parent="1">
          <mxGeometry x="677.5" y="370" width="30" height="30" as="geometry" />
        </mxCell>
        <mxCell id="Ml2V3eAciqf3Qmk2anu4-13" value="15" style="text;html=1;align=center;verticalAlign=middle;resizable=0;points=[];autosize=1;strokeColor=none;fillColor=none;" vertex="1" parent="1">
          <mxGeometry x="715" y="480" width="40" height="30" as="geometry" />
        </mxCell>
        <mxCell id="Ml2V3eAciqf3Qmk2anu4-14" value="14" style="text;html=1;align=center;verticalAlign=middle;resizable=0;points=[];autosize=1;strokeColor=none;fillColor=none;" vertex="1" parent="1">
          <mxGeometry x="675" y="480" width="40" height="30" as="geometry" />
        </mxCell>
        <mxCell id="Ml2V3eAciqf3Qmk2anu4-15" value="13" style="text;html=1;align=center;verticalAlign=middle;resizable=0;points=[];autosize=1;strokeColor=none;fillColor=none;" vertex="1" parent="1">
          <mxGeometry x="635" y="480" width="40" height="30" as="geometry" />
        </mxCell>
        <mxCell id="Ml2V3eAciqf3Qmk2anu4-16" value="12" style="text;html=1;align=center;verticalAlign=middle;resizable=0;points=[];autosize=1;strokeColor=none;fillColor=none;" vertex="1" parent="1">
          <mxGeometry x="590" y="480" width="40" height="30" as="geometry" />
        </mxCell>
        <mxCell id="Ml2V3eAciqf3Qmk2anu4-17" value="7" style="text;html=1;align=center;verticalAlign=middle;resizable=0;points=[];autosize=1;strokeColor=none;fillColor=none;" vertex="1" parent="1">
          <mxGeometry x="560" y="480" width="30" height="30" as="geometry" />
        </mxCell>
        <mxCell id="Ml2V3eAciqf3Qmk2anu4-18" value="1" style="text;html=1;align=center;verticalAlign=middle;resizable=0;points=[];autosize=1;strokeColor=none;fillColor=none;" vertex="1" parent="1">
          <mxGeometry x="560" y="370" width="30" height="30" as="geometry" />
        </mxCell>
        <mxCell id="Ml2V3eAciqf3Qmk2anu4-20" style="edgeStyle=orthogonalEdgeStyle;rounded=0;orthogonalLoop=1;jettySize=auto;html=1;exitX=0.25;exitY=0;exitDx=0;exitDy=0;entryX=0;entryY=0.5;entryDx=0;entryDy=0;entryPerimeter=0;" edge="1" parent="1" source="-OVCTLAQbizjKhevLptn-36" target="Ml2V3eAciqf3Qmk2anu4-2">
          <mxGeometry relative="1" as="geometry">
            <Array as="points">
              <mxPoint x="580" y="233" />
              <mxPoint x="610" y="230" />
              <mxPoint x="653" y="233" />
            </Array>
          </mxGeometry>
        </mxCell>
      </root>
    </mxGraphModel>
  </diagram>
</mxfile>
